<?xml version="1.0" encoding="UTF-8"?>
<svg id="Capa_1" data-name="Capa 1" xmlns="http://www.w3.org/2000/svg" viewBox="0 0 1080 1080">
  <defs>
    <style>
      .cls-1 {
        fill: #3a3a3a;
        stroke-width: 0px;
      }
    </style>
  </defs>
  <g>
    <g>
      <path class="cls-1" d="M19.64,504.29v-.57c0-43.27,33.09-78.9,79.46-78.9,28.56,0,46.38,9.62,60.52,25.45l-26.3,28.28c-9.61-10.18-19.23-16.68-34.5-16.68-21.49,0-36.76,18.95-36.76,41.29v.57c0,23.19,14.99,41.85,38.46,41.85,14.42,0,24.32-6.22,34.78-16.12l25.17,25.45c-14.71,16.12-31.67,27.71-61.93,27.71-45.53,0-78.9-35.07-78.9-78.33Z"/>
      <path class="cls-1" d="M190.44,372.8h42.98v206.43h-42.98v-206.43Z"/>
      <path class="cls-1" d="M274.72,372.8h45.25v38.17h-45.25v-38.17ZM275.85,427.66h42.98v151.57h-42.98v-151.57Z"/>
      <path class="cls-1" d="M413.85,582.62c-30.26,0-47.22-11.59-61.93-27.71l25.17-25.45c10.46,9.9,20.36,16.12,34.78,16.12,23.47,0,38.46-18.66,38.46-41.85v-.57c0-22.34-15.27-41.29-36.76-41.29-15.27,0-24.89,6.5-34.5,16.68l-26.3-28.28c14.14-15.84,31.96-25.45,60.52-25.45,46.38,0,79.46,35.63,79.46,78.9v.57c0,43.27-33.37,78.33-78.9,78.33Z"/>
      <path class="cls-1" d="M520.75,372.8h42.98v110l50.34-55.14h51.47l-57.69,59.67,59.67,91.91h-49.77l-38.74-62.21-15.27,16.12v46.09h-42.98v-206.43Z"/>
    </g>
    <g>
      <path class="cls-1" d="M275.85,707.55l7.87-11.96c8.46,6.27,17.35,9.48,25.23,9.48s11.96-3.21,11.96-8.31v-.29c0-5.98-8.17-8.02-17.21-10.79-11.37-3.21-24.06-7.87-24.06-22.6v-.29c0-14.58,12.1-23.48,27.41-23.48,9.62,0,20.12,3.35,28.29,8.75l-7,12.54c-7.44-4.52-15.31-7.29-21.73-7.29-6.85,0-10.79,3.21-10.79,7.58v.29c0,5.69,8.31,8.02,17.35,10.94,11.23,3.5,23.91,8.6,23.91,22.45v.29c0,16.19-12.54,24.2-28.58,24.2-10.93,0-23.04-3.94-32.66-11.52Z"/>
      <path class="cls-1" d="M362.02,679.56v-.29c0-22.02,17.5-40.24,41.12-40.24s40.97,17.93,40.97,39.95v.29c0,21.87-17.5,40.1-41.26,40.1s-40.83-17.94-40.83-39.81ZM426.47,679.56v-.29c0-13.56-9.77-24.79-23.62-24.79s-23.18,11.08-23.18,24.5v.29c0,13.41,9.77,24.64,23.48,24.64s23.33-11.08,23.33-24.35Z"/>
      <path class="cls-1" d="M474.16,611.17h17.64v106.44h-17.64v-106.44Z"/>
      <path class="cls-1" d="M520.82,695.45v-.29c0-16.62,12.98-24.79,31.79-24.79,8.6,0,14.73,1.31,20.7,3.21v-1.9c0-10.94-6.71-16.77-19.1-16.77-8.6,0-15.02,1.9-22.02,4.81l-4.67-13.85c8.46-3.79,16.77-6.27,29.02-6.27,11.52,0,20.12,3.06,25.52,8.6,5.69,5.54,8.31,13.71,8.31,23.77v45.64h-17.21v-9.62c-5.25,6.27-13.27,11.23-25.08,11.23-14.43,0-27.27-8.31-27.27-23.77ZM573.6,689.91v-5.25c-4.52-1.75-10.5-3.06-17.5-3.06-11.37,0-18.08,4.81-18.08,12.83v.29c0,7.44,6.56,11.66,15.02,11.66,11.66,0,20.56-6.71,20.56-16.48Z"/>
      <path class="cls-1" d="M622.6,640.62h17.64v17.35c4.81-11.52,13.71-19.39,27.27-18.81v18.66h-1.02c-15.46,0-26.25,10.06-26.25,30.47v29.31h-17.64v-76.99Z"/>
    </g>
  </g>
  <path class="cls-1" d="M1008.16,411.61c-71.09-72.92-189.05-73.92-261.32-2.16-33.74,33.5-51.77,76.81-54.09,120.79-2.43,46.09,41.56,80.9,85.75,67.57,27.26-8.23,47.56-21.58,61.13-32.99l-36.84-16.5c-3.07-1.22-3.05-5.57.03-6.77l111.35-43.3c2.96-1.15,5.87,1.78,4.7,4.74l-44.1,110.7c-1.22,3.05-5.54,3.06-6.76,0l-16.17-37.22c-11.45,13.55-24.92,33.92-33.21,61.34-13.38,44.26,21.45,88.29,67.62,85.84,43.75-2.32,86.82-20.19,120.24-53.61,71.27-71.27,71.83-186.47,1.67-258.43Z"/>
</svg>