<?xml version="1.0" encoding="UTF-8"?>
<svg id="Capa_1" data-name="Capa 1" xmlns="http://www.w3.org/2000/svg" viewBox="0 0 1080 1080">
  <defs>
    <style>
      .cls-1 {
        fill: #3a3a3a;
        stroke-width: 0px;
      }
    </style>
  </defs>
  <path class="cls-1" d="M760.1,325.48c-121.13-124.24-322.09-125.94-445.22-3.69-57.49,57.08-88.2,130.86-92.15,205.79-4.14,78.53,70.8,137.84,146.09,115.12,46.44-14.01,81.04-36.76,104.16-56.2l-62.76-28.11c-5.23-2.08-5.2-9.49.05-11.53l189.71-73.77c5.05-1.96,10.01,3.04,8,8.07l-75.14,188.6c-2.07,5.2-9.44,5.21-11.51,0l-27.55-63.41c-19.51,23.09-42.46,57.8-56.59,104.51-22.8,75.4,36.54,150.43,115.2,146.25,74.53-3.96,147.92-34.4,204.85-91.34,121.42-121.42,122.37-317.7,2.85-440.29Z"/>
</svg>