<?xml version="1.0" encoding="UTF-8"?>
<svg id="Capa_1" data-name="Capa 1" xmlns="http://www.w3.org/2000/svg" viewBox="0 0 1080 1080">
  <defs>
    <style>
      .cls-1 {
        fill: #fadd10;
      }

      .cls-1, .cls-2 {
        stroke-width: 0px;
      }

      .cls-2 {
        fill: #3a3a3a;
      }
    </style>
  </defs>
  <g>
    <g>
      <path class="cls-2" d="M108.84,633.31v-.49c0-37.34,28.55-68.08,68.57-68.08,24.65,0,40.02,8.3,52.22,21.96l-22.69,24.4c-8.3-8.78-16.59-14.4-29.77-14.4-18.55,0-31.72,16.35-31.72,35.63v.49c0,20.01,12.93,36.12,33.19,36.12,12.45,0,20.99-5.37,30.02-13.91l21.72,21.96c-12.69,13.91-27.33,23.91-53.44,23.91-39.29,0-68.08-30.26-68.08-67.6Z"/>
      <path class="cls-2" d="M256.24,519.84h37.09v178.14h-37.09v-178.14Z"/>
      <path class="cls-2" d="M328.96,519.84h39.04v32.94h-39.04v-32.94ZM329.94,567.18h37.09v130.8h-37.09v-130.8Z"/>
      <path class="cls-1" d="M449.02,700.9c-26.11,0-40.75-10-53.44-23.91l21.72-21.96c9.03,8.54,17.57,13.91,30.02,13.91,20.25,0,33.19-16.11,33.19-36.12v-.49c0-19.28-13.18-35.63-31.72-35.63-13.18,0-21.47,5.61-29.77,14.4l-22.69-24.4c12.2-13.67,27.58-21.96,52.22-21.96,40.02,0,68.57,30.75,68.57,68.08v.49c0,37.34-28.8,67.6-68.08,67.6Z"/>
      <path class="cls-2" d="M541.27,519.84h37.09v94.93l43.44-47.58h44.41l-49.78,51.49,51.49,79.31h-42.95l-33.43-53.68-13.18,13.91v39.78h-37.09v-178.14Z"/>
    </g>
    <g>
      <path class="cls-1" d="M329.94,808.71l6.8-10.32c7.3,5.41,14.97,8.18,21.77,8.18s10.32-2.77,10.32-7.17v-.25c0-5.16-7.05-6.92-14.85-9.31-9.81-2.77-20.76-6.79-20.76-19.5v-.25c0-12.58,10.44-20.26,23.66-20.26,8.3,0,17.36,2.89,24.41,7.55l-6.04,10.82c-6.42-3.9-13.21-6.29-18.75-6.29-5.91,0-9.31,2.77-9.31,6.54v.25c0,4.91,7.17,6.92,14.97,9.44,9.69,3.02,20.64,7.42,20.64,19.38v.25c0,13.97-10.82,20.89-24.66,20.89-9.44,0-19.88-3.4-28.18-9.94Z"/>
      <path class="cls-1" d="M404.3,784.55v-.25c0-19,15.1-34.73,35.48-34.73s35.36,15.48,35.36,34.48v.25c0,18.87-15.1,34.6-35.61,34.6s-35.23-15.48-35.23-34.35ZM459.92,784.55v-.25c0-11.7-8.43-21.39-20.38-21.39s-20.01,9.56-20.01,21.14v.25c0,11.58,8.43,21.26,20.26,21.26s20.13-9.56,20.13-21.01Z"/>
      <path class="cls-1" d="M501.07,725.54h15.22v91.85h-15.22v-91.85Z"/>
      <path class="cls-1" d="M541.33,798.26v-.25c0-14.34,11.2-21.39,27.43-21.39,7.42,0,12.71,1.13,17.87,2.77v-1.64c0-9.44-5.79-14.47-16.48-14.47-7.42,0-12.96,1.64-19,4.15l-4.03-11.95c7.3-3.27,14.47-5.41,25.04-5.41,9.94,0,17.36,2.64,22.02,7.42,4.91,4.78,7.17,11.83,7.17,20.51v39.38h-14.85v-8.3c-4.53,5.41-11.45,9.69-21.64,9.69-12.46,0-23.53-7.17-23.53-20.51ZM586.88,793.48v-4.53c-3.9-1.51-9.06-2.64-15.1-2.64-9.81,0-15.6,4.15-15.6,11.07v.25c0,6.42,5.66,10.07,12.96,10.07,10.07,0,17.74-5.79,17.74-14.22Z"/>
      <path class="cls-1" d="M629.16,750.95h15.22v14.97c4.15-9.94,11.83-16.73,23.53-16.23v16.11h-.88c-13.34,0-22.65,8.68-22.65,26.3v25.29h-15.22v-66.44Z"/>
    </g>
  </g>
  <path class="cls-1" d="M916.36,319.19c-74.63-76.54-198.44-77.59-274.3-2.27-35.42,35.17-54.34,80.62-56.77,126.79-2.55,48.38,43.62,84.92,90.01,70.93,28.61-8.63,49.93-22.65,64.17-34.63l-38.67-17.32c-3.22-1.28-3.2-5.85.03-7.11l116.88-45.45c3.11-1.21,6.17,1.87,4.93,4.97l-46.29,116.19c-1.28,3.21-5.82,3.21-7.09,0l-16.97-39.06c-12.02,14.23-26.16,35.61-34.86,64.39-14.05,46.45,22.51,92.68,70.98,90.1,45.92-2.44,91.13-21.19,126.21-56.27,74.81-74.81,75.39-195.73,1.75-271.26Z"/>
</svg>